<?xml version="1.0" encoding="UTF-8" standalone="no"?>
<!-- Created with Inkscape (http://www.inkscape.org/) -->

<svg
   xmlns:dc="http://purl.org/dc/elements/1.1/"
   xmlns:cc="http://creativecommons.org/ns#"
   xmlns:rdf="http://www.w3.org/1999/02/22-rdf-syntax-ns#"
   xmlns:svg="http://www.w3.org/2000/svg"
   xmlns="http://www.w3.org/2000/svg"
   xmlns:sodipodi="http://sodipodi.sourceforge.net/DTD/sodipodi-0.dtd"
   xmlns:inkscape="http://www.inkscape.org/namespaces/inkscape"
   width="1052.3622"
   height="744.09448"
   id="svg2"
   version="1.1"
   inkscape:version="0.48.2 r9819"
   sodipodi:docname="homeRangeIntersection.svg">
  <defs
     id="defs4" />
  <sodipodi:namedview
     id="base"
     pagecolor="#ffffff"
     bordercolor="#666666"
     borderopacity="1.0"
     inkscape:pageopacity="0.0"
     inkscape:pageshadow="2"
     inkscape:zoom="1.0186878"
     inkscape:cx="526.18109"
     inkscape:cy="372.04724"
     inkscape:document-units="px"
     inkscape:current-layer="layer1"
     showgrid="false"
     inkscape:window-width="1672"
     inkscape:window-height="989"
     inkscape:window-x="0"
     inkscape:window-y="0"
     inkscape:window-maximized="1" />
  <metadata
     id="metadata7">
    <rdf:RDF>
      <cc:Work
         rdf:about="">
        <dc:format>image/svg+xml</dc:format>
        <dc:type
           rdf:resource="http://purl.org/dc/dcmitype/StillImage" />
        <dc:title></dc:title>
      </cc:Work>
    </rdf:RDF>
  </metadata>
  <g
     inkscape:label="Layer 1"
     inkscape:groupmode="layer"
     id="layer1"
     transform="translate(0,-308.2677)">
    <rect
       style="fill:#479254;fill-opacity:1;stroke:#000000;stroke-width:2.5999999;stroke-miterlimit:4;stroke-opacity:1;stroke-dasharray:none;stroke-dashoffset:0"
       id="rect2985"
       width="53.009369"
       height="51.046059"
       x="192.40439"
       y="407.41486" />
    <rect
       style="fill:#479254;fill-opacity:1;stroke:#000000;stroke-width:2.5999999;stroke-miterlimit:4;stroke-opacity:1;stroke-dasharray:none;stroke-dashoffset:0"
       id="rect2985-5"
       width="53.009369"
       height="51.046059"
       x="247.34036"
       y="408.4332" />
    <rect
       style="fill:#479254;fill-opacity:1;stroke:#000000;stroke-width:2.5999999;stroke-miterlimit:4;stroke-opacity:1;stroke-dasharray:none;stroke-dashoffset:0"
       id="rect2985-6"
       width="53.009369"
       height="51.046059"
       x="302.36807"
       y="406.9057" />
    <rect
       style="fill:#808000;fill-opacity:1;stroke:#000000;stroke-width:2.59999989999999981;stroke-miterlimit:4;stroke-opacity:1;stroke-dasharray:none;stroke-dashoffset:0"
       id="rect2985-5-2"
       width="53.009369"
       height="51.046059"
       x="357.30405"
       y="407.92404" />
    <rect
       style="fill:#808000;fill-opacity:1;stroke:#000000;stroke-width:2.59999989999999981;stroke-miterlimit:4;stroke-opacity:1;stroke-dasharray:none;stroke-dashoffset:0"
       id="rect2985-4"
       width="53.009369"
       height="51.046059"
       x="412.30426"
       y="407.16025" />
    <rect
       style="fill:#808000;fill-opacity:1;stroke:#000000;stroke-width:2.59999989999999981;stroke-miterlimit:4;stroke-opacity:1;stroke-dasharray:none;stroke-dashoffset:0"
       id="rect2985-5-21"
       width="53.009369"
       height="51.046059"
       x="467.24023"
       y="408.17862" />
    <rect
       style="fill:#00ffff;fill-opacity:1;stroke:#000000;stroke-width:2.59999989999999981;stroke-miterlimit:4;stroke-opacity:1;stroke-dasharray:none;stroke-dashoffset:0"
       id="rect2985-6-8"
       width="53.009369"
       height="51.046059"
       x="522.26801"
       y="406.65109" />
    <rect
       style="fill:#00ffff;fill-opacity:1;stroke:#000000;stroke-width:2.59999989999999981;stroke-miterlimit:4;stroke-opacity:1;stroke-dasharray:none;stroke-dashoffset:0"
       id="rect2985-5-2-4"
       width="53.009369"
       height="51.046059"
       x="577.20398"
       y="407.66946" />
    <rect
       style="fill:#00ffff;fill-opacity:1;stroke:#000000;stroke-width:2.59999989999999981;stroke-miterlimit:4;stroke-opacity:1;stroke-dasharray:none;stroke-dashoffset:0"
       id="rect2985-5-2-4-9"
       width="53.009369"
       height="51.046059"
       x="633.16748"
       y="407.41486" />
    <rect
       style="fill:#479254;fill-opacity:1;stroke:#000000;stroke-width:2.5999999;stroke-miterlimit:4;stroke-opacity:1;stroke-dasharray:none;stroke-dashoffset:0"
       id="rect2985-1"
       width="53.009369"
       height="51.046059"
       x="191.91356"
       y="460.29691" />
    <rect
       style="fill:#c87137;fill-opacity:1;stroke:#000000;stroke-width:2.59999989999999981;stroke-miterlimit:4;stroke-opacity:1;stroke-dasharray:none;stroke-dashoffset:0"
       id="rect2985-5-9"
       width="53.009369"
       height="51.046059"
       x="246.84953"
       y="461.31528" />
    <rect
       style="fill:#808000;fill-opacity:1;stroke:#000000;stroke-width:2.59999989999999981;stroke-miterlimit:4;stroke-opacity:1;stroke-dasharray:none;stroke-dashoffset:0"
       id="rect2985-6-4"
       width="53.009369"
       height="51.046059"
       x="301.87726"
       y="459.78775" />
    <rect
       style="fill:#808000;fill-opacity:1;stroke:#000000;stroke-width:2.59999989999999981;stroke-miterlimit:4;stroke-opacity:1;stroke-dasharray:none;stroke-dashoffset:0"
       id="rect2985-5-2-43"
       width="53.009369"
       height="51.046059"
       x="356.81323"
       y="460.80612" />
    <rect
       style="fill:#808000;fill-opacity:1;stroke:#000000;stroke-width:2.59999989999999981;stroke-miterlimit:4;stroke-opacity:1;stroke-dasharray:none;stroke-dashoffset:0"
       id="rect2985-4-2"
       width="53.009369"
       height="51.046059"
       x="411.81342"
       y="460.04233" />
    <rect
       style="fill:#808000;fill-opacity:1;stroke:#000000;stroke-width:2.59999989999999981;stroke-miterlimit:4;stroke-opacity:1;stroke-dasharray:none;stroke-dashoffset:0"
       id="rect2985-5-21-9"
       width="53.009369"
       height="51.046059"
       x="466.74939"
       y="461.0607" />
    <rect
       style="fill:#808000;fill-opacity:1;stroke:#000000;stroke-width:2.59999989999999981;stroke-miterlimit:4;stroke-opacity:1;stroke-dasharray:none;stroke-dashoffset:0"
       id="rect2985-6-8-1"
       width="53.009369"
       height="51.046059"
       x="521.77716"
       y="459.53317" />
    <rect
       style="fill:#808000;fill-opacity:1;stroke:#000000;stroke-width:2.59999989999999981;stroke-miterlimit:4;stroke-opacity:1;stroke-dasharray:none;stroke-dashoffset:0"
       id="rect2985-5-2-4-3"
       width="53.009369"
       height="51.046059"
       x="576.71313"
       y="460.55154" />
    <rect
       style="fill:#00ffff;fill-opacity:1;stroke:#000000;stroke-width:2.59999989999999981;stroke-miterlimit:4;stroke-opacity:1;stroke-dasharray:none;stroke-dashoffset:0"
       id="rect2985-5-2-4-9-7"
       width="53.009369"
       height="51.046059"
       x="632.67664"
       y="460.29691" />
    <rect
       style="fill:#479254;fill-opacity:1;stroke:#000000;stroke-width:2.5999999;stroke-miterlimit:4;stroke-opacity:1;stroke-dasharray:none;stroke-dashoffset:0"
       id="rect2985-7"
       width="53.009369"
       height="51.046059"
       x="192.89522"
       y="513.30634" />
    <rect
       style="fill:#c87137;fill-opacity:1;stroke:#000000;stroke-width:2.59999989999999981;stroke-miterlimit:4;stroke-opacity:1;stroke-dasharray:none;stroke-dashoffset:0"
       id="rect2985-5-7"
       width="53.009369"
       height="51.046059"
       x="247.83119"
       y="514.32465" />
    <rect
       style="fill:#808000;fill-opacity:1;stroke:#000000;stroke-width:2.59999989999999981;stroke-miterlimit:4;stroke-opacity:1;stroke-dasharray:none;stroke-dashoffset:0"
       id="rect2985-6-2"
       width="53.009369"
       height="51.046059"
       x="302.85889"
       y="512.79718" />
    <rect
       style="fill:#808000;fill-opacity:1;stroke:#000000;stroke-width:2.59999989999999981;stroke-miterlimit:4;stroke-opacity:1;stroke-dasharray:none;stroke-dashoffset:0"
       id="rect2985-5-2-3"
       width="53.009369"
       height="51.046059"
       x="357.79486"
       y="513.81549" />
    <rect
       style="fill:#808000;fill-opacity:1;stroke:#000000;stroke-width:2.59999989999999981;stroke-miterlimit:4;stroke-opacity:1;stroke-dasharray:none;stroke-dashoffset:0"
       id="rect2985-4-9"
       width="53.009369"
       height="51.046059"
       x="412.79507"
       y="513.0517" />
    <rect
       style="fill:#808000;fill-opacity:1;stroke:#000000;stroke-width:2.59999989999999981;stroke-miterlimit:4;stroke-opacity:1;stroke-dasharray:none;stroke-dashoffset:0"
       id="rect2985-5-21-5"
       width="53.009369"
       height="51.046059"
       x="467.73105"
       y="514.07007" />
    <rect
       style="fill:#008080;fill-opacity:1;stroke:#000000;stroke-width:2.59999989999999981;stroke-miterlimit:4;stroke-opacity:1;stroke-dasharray:none;stroke-dashoffset:0"
       id="rect2985-6-8-0"
       width="53.009369"
       height="51.046059"
       x="522.75885"
       y="512.54254" />
    <rect
       style="fill:#808000;fill-opacity:1;stroke:#000000;stroke-width:2.59999989999999981;stroke-miterlimit:4;stroke-opacity:1;stroke-dasharray:none;stroke-dashoffset:0"
       id="rect2985-5-2-4-4"
       width="53.009369"
       height="51.046059"
       x="577.69482"
       y="513.56091" />
    <rect
       style="fill:#00ffff;fill-opacity:1;stroke:#000000;stroke-width:2.59999989999999981;stroke-miterlimit:4;stroke-opacity:1;stroke-dasharray:none;stroke-dashoffset:0"
       id="rect2985-5-2-4-9-5"
       width="53.009369"
       height="51.046059"
       x="633.65833"
       y="513.30634" />
    <rect
       style="fill:#c87137;fill-opacity:1;stroke:#000000;stroke-width:2.59999989999999981;stroke-miterlimit:4;stroke-opacity:1;stroke-dasharray:none;stroke-dashoffset:0"
       id="rect2985-65"
       width="53.009369"
       height="51.046059"
       x="192.89522"
       y="567.2973" />
    <rect
       style="fill:#c87137;fill-opacity:1;stroke:#000000;stroke-width:2.59999989999999981;stroke-miterlimit:4;stroke-opacity:1;stroke-dasharray:none;stroke-dashoffset:0"
       id="rect2985-5-1"
       width="53.009369"
       height="51.046059"
       x="247.83118"
       y="568.31567" />
    <rect
       style="fill:#808000;fill-opacity:1;stroke:#000000;stroke-width:2.59999989999999981;stroke-miterlimit:4;stroke-opacity:1;stroke-dasharray:none;stroke-dashoffset:0"
       id="rect2985-6-9"
       width="53.009369"
       height="51.046059"
       x="302.85889"
       y="566.78815" />
    <rect
       style="fill:#808000;fill-opacity:1;stroke:#000000;stroke-width:2.59999989999999981;stroke-miterlimit:4;stroke-opacity:1;stroke-dasharray:none;stroke-dashoffset:0"
       id="rect2985-5-2-6"
       width="53.009369"
       height="51.046059"
       x="357.79486"
       y="567.80652" />
    <rect
       style="fill:#808000;fill-opacity:1;stroke:#000000;stroke-width:2.59999989999999981;stroke-miterlimit:4;stroke-opacity:1;stroke-dasharray:none;stroke-dashoffset:0"
       id="rect2985-4-95"
       width="53.009369"
       height="51.046059"
       x="412.79507"
       y="567.04272" />
    <rect
       style="fill:#808000;fill-opacity:1;stroke:#000000;stroke-width:2.59999989999999981;stroke-miterlimit:4;stroke-opacity:1;stroke-dasharray:none;stroke-dashoffset:0"
       id="rect2985-5-21-2"
       width="53.009369"
       height="51.046059"
       x="467.73105"
       y="568.0611" />
    <rect
       style="fill:#808000;fill-opacity:1;stroke:#000000;stroke-width:2.59999989999999981;stroke-miterlimit:4;stroke-opacity:1;stroke-dasharray:none;stroke-dashoffset:0"
       id="rect2985-6-8-01"
       width="53.009369"
       height="51.046059"
       x="522.75879"
       y="566.53357" />
    <rect
       style="fill:#808000;fill-opacity:1;stroke:#000000;stroke-width:2.59999989999999981;stroke-miterlimit:4;stroke-opacity:1;stroke-dasharray:none;stroke-dashoffset:0"
       id="rect2985-5-2-4-42"
       width="53.009369"
       height="51.046059"
       x="577.69476"
       y="567.55194" />
    <rect
       style="fill:#808000;fill-opacity:1;stroke:#000000;stroke-width:2.59999989999999981;stroke-miterlimit:4;stroke-opacity:1;stroke-dasharray:none;stroke-dashoffset:0"
       id="rect2985-5-2-4-9-50"
       width="53.009369"
       height="51.046059"
       x="633.65826"
       y="567.2973" />
    <rect
       style="fill:#c87137;fill-opacity:1;stroke:#000000;stroke-width:2.59999989999999981;stroke-miterlimit:4;stroke-opacity:1;stroke-dasharray:none;stroke-dashoffset:0"
       id="rect2985-79"
       width="53.009369"
       height="51.046059"
       x="192.8952"
       y="620.86121" />
    <rect
       style="fill:#c87137;fill-opacity:1;stroke:#000000;stroke-width:2.59999989999999981;stroke-miterlimit:4;stroke-opacity:1;stroke-dasharray:none;stroke-dashoffset:0"
       id="rect2985-5-6"
       width="53.009369"
       height="51.046059"
       x="247.83118"
       y="621.87952" />
    <rect
       style="fill:#c87137;fill-opacity:1;stroke:#000000;stroke-width:2.59999989999999981;stroke-miterlimit:4;stroke-opacity:1;stroke-dasharray:none;stroke-dashoffset:0"
       id="rect2985-6-3"
       width="53.009369"
       height="51.046059"
       x="302.85889"
       y="620.35205" />
    <rect
       style="fill:#808000;fill-opacity:1;stroke:#000000;stroke-width:2.59999989999999981;stroke-miterlimit:4;stroke-opacity:1;stroke-dasharray:none;stroke-dashoffset:0"
       id="rect2985-5-2-7"
       width="53.009369"
       height="51.046059"
       x="357.79486"
       y="621.37036" />
    <rect
       style="fill:#000080;fill-opacity:1;stroke:#000000;stroke-width:2.59999989999999981;stroke-miterlimit:4;stroke-opacity:1;stroke-dasharray:none;stroke-dashoffset:0"
       id="rect2985-4-8"
       width="53.009369"
       height="51.046059"
       x="412.79504"
       y="620.60657" />
    <rect
       style="fill:#808000;fill-opacity:1;stroke:#000000;stroke-width:2.59999989999999981;stroke-miterlimit:4;stroke-opacity:1;stroke-dasharray:none;stroke-dashoffset:0"
       id="rect2985-5-21-26"
       width="53.009369"
       height="51.046059"
       x="467.73102"
       y="621.62494" />
    <rect
       style="fill:#808000;fill-opacity:1;stroke:#000000;stroke-width:2.59999989999999981;stroke-miterlimit:4;stroke-opacity:1;stroke-dasharray:none;stroke-dashoffset:0"
       id="rect2985-6-8-2"
       width="53.009369"
       height="51.046059"
       x="522.75879"
       y="620.09741" />
    <rect
       style="fill:#808000;fill-opacity:1;stroke:#000000;stroke-width:2.59999989999999981;stroke-miterlimit:4;stroke-opacity:1;stroke-dasharray:none;stroke-dashoffset:0"
       id="rect2985-5-2-4-5"
       width="53.009369"
       height="51.046059"
       x="577.69476"
       y="621.11578" />
    <rect
       style="fill:#808000;fill-opacity:1;stroke:#000000;stroke-width:2.59999989999999981;stroke-miterlimit:4;stroke-opacity:1;stroke-dasharray:none;stroke-dashoffset:0"
       id="rect2985-5-2-4-9-6"
       width="53.009369"
       height="51.046059"
       x="633.65826"
       y="620.86121" />
    <rect
       style="fill:#c87137;fill-opacity:1;stroke:#000000;stroke-width:2.59999989999999981;stroke-miterlimit:4;stroke-opacity:1;stroke-dasharray:none;stroke-dashoffset:0"
       id="rect2985-1-7"
       width="53.009369"
       height="51.046059"
       x="192.40436"
       y="673.74323" />
    <rect
       style="fill:#c87137;fill-opacity:1;stroke:#000000;stroke-width:2.59999989999999981;stroke-miterlimit:4;stroke-opacity:1;stroke-dasharray:none;stroke-dashoffset:0"
       id="rect2985-5-9-5"
       width="53.009369"
       height="51.046059"
       x="247.34033"
       y="674.7616" />
    <rect
       style="fill:#c87137;fill-opacity:1;stroke:#000000;stroke-width:2.59999989999999981;stroke-miterlimit:4;stroke-opacity:1;stroke-dasharray:none;stroke-dashoffset:0"
       id="rect2985-6-4-0"
       width="53.009369"
       height="51.046059"
       x="302.36807"
       y="673.23407" />
    <rect
       style="fill:#808000;fill-opacity:1;stroke:#000000;stroke-width:2.59999989999999981;stroke-miterlimit:4;stroke-opacity:1;stroke-dasharray:none;stroke-dashoffset:0"
       id="rect2985-5-2-43-4"
       width="53.009369"
       height="51.046059"
       x="357.30405"
       y="674.25244" />
    <rect
       style="fill:#808000;fill-opacity:1;stroke:#000000;stroke-width:2.59999989999999981;stroke-miterlimit:4;stroke-opacity:1;stroke-dasharray:none;stroke-dashoffset:0"
       id="rect2985-4-2-2"
       width="53.009369"
       height="51.046059"
       x="412.3042"
       y="673.48865" />
    <rect
       style="fill:#808000;fill-opacity:1;stroke:#000000;stroke-width:2.59999989999999981;stroke-miterlimit:4;stroke-opacity:1;stroke-dasharray:none;stroke-dashoffset:0"
       id="rect2985-5-21-9-7"
       width="53.009369"
       height="51.046059"
       x="467.24017"
       y="674.50702" />
    <rect
       style="fill:#808000;fill-opacity:1;stroke:#000000;stroke-width:2.59999989999999981;stroke-miterlimit:4;stroke-opacity:1;stroke-dasharray:none;stroke-dashoffset:0"
       id="rect2985-6-8-1-9"
       width="53.009369"
       height="51.046059"
       x="522.26794"
       y="672.97949" />
    <rect
       style="fill:#808000;fill-opacity:1;stroke:#000000;stroke-width:2.59999989999999981;stroke-miterlimit:4;stroke-opacity:1;stroke-dasharray:none;stroke-dashoffset:0"
       id="rect2985-5-2-4-3-5"
       width="53.009369"
       height="51.046059"
       x="577.20392"
       y="673.99786" />
    <rect
       style="fill:#808000;fill-opacity:1;stroke:#000000;stroke-width:2.59999989999999981;stroke-miterlimit:4;stroke-opacity:1;stroke-dasharray:none;stroke-dashoffset:0"
       id="rect2985-5-2-4-9-7-8"
       width="53.009369"
       height="51.046059"
       x="633.16742"
       y="673.74323" />
    <rect
       style="fill:#479254;fill-opacity:1;stroke:#000000;stroke-width:2.5999999;stroke-miterlimit:4;stroke-opacity:1;stroke-dasharray:none;stroke-dashoffset:0"
       id="rect2985-7-5"
       width="53.009369"
       height="51.046059"
       x="193.38602"
       y="726.75269" />
    <rect
       style="fill:#c87137;fill-opacity:1;stroke:#000000;stroke-width:2.59999989999999981;stroke-miterlimit:4;stroke-opacity:1;stroke-dasharray:none;stroke-dashoffset:0"
       id="rect2985-5-7-7"
       width="53.009369"
       height="51.046059"
       x="248.32199"
       y="727.771" />
    <rect
       style="fill:#c87137;fill-opacity:1;stroke:#000000;stroke-width:2.59999989999999981;stroke-miterlimit:4;stroke-opacity:1;stroke-dasharray:none;stroke-dashoffset:0"
       id="rect2985-6-2-3"
       width="53.009369"
       height="51.046059"
       x="303.3497"
       y="726.24353" />
    <rect
       style="fill:#c87137;fill-opacity:1;stroke:#000000;stroke-width:2.59999989999999981;stroke-miterlimit:4;stroke-opacity:1;stroke-dasharray:none;stroke-dashoffset:0"
       id="rect2985-5-2-3-0"
       width="53.009369"
       height="51.046059"
       x="358.28568"
       y="727.26184" />
    <rect
       style="fill:#c87137;fill-opacity:1;stroke:#000000;stroke-width:2.59999989999999981;stroke-miterlimit:4;stroke-opacity:1;stroke-dasharray:none;stroke-dashoffset:0"
       id="rect2985-4-9-7"
       width="53.009369"
       height="51.046059"
       x="413.28589"
       y="726.49805" />
    <rect
       style="fill:#808000;fill-opacity:1;stroke:#000000;stroke-width:2.59999989999999981;stroke-miterlimit:4;stroke-opacity:1;stroke-dasharray:none;stroke-dashoffset:0"
       id="rect2985-5-21-5-6"
       width="53.009369"
       height="51.046059"
       x="468.22186"
       y="727.51642" />
    <rect
       style="fill:#808000;fill-opacity:1;stroke:#000000;stroke-width:2.59999989999999981;stroke-miterlimit:4;stroke-opacity:1;stroke-dasharray:none;stroke-dashoffset:0"
       id="rect2985-6-8-0-6"
       width="53.009369"
       height="51.046059"
       x="523.24963"
       y="725.98889" />
    <rect
       style="fill:#808000;fill-opacity:1;stroke:#000000;stroke-width:2.59999989999999981;stroke-miterlimit:4;stroke-opacity:1;stroke-dasharray:none;stroke-dashoffset:0"
       id="rect2985-5-2-4-4-1"
       width="53.009369"
       height="51.046059"
       x="578.18561"
       y="727.00726" />
    <rect
       style="fill:#479254;fill-opacity:1;stroke:#000000;stroke-width:2.5999999;stroke-miterlimit:4;stroke-opacity:1;stroke-dasharray:none;stroke-dashoffset:0"
       id="rect2985-5-2-4-9-5-2"
       width="53.009369"
       height="51.046059"
       x="634.14911"
       y="726.75269" />
    <rect
       style="fill:#479254;fill-opacity:1;stroke:#000000;stroke-width:2.5999999;stroke-miterlimit:4;stroke-opacity:1;stroke-dasharray:none;stroke-dashoffset:0"
       id="rect2985-65-6"
       width="53.009369"
       height="51.046059"
       x="193.38602"
       y="780.74365" />
    <rect
       style="fill:#c87137;fill-opacity:1;stroke:#000000;stroke-width:2.59999989999999981;stroke-miterlimit:4;stroke-opacity:1;stroke-dasharray:none;stroke-dashoffset:0"
       id="rect2985-5-1-6"
       width="53.009369"
       height="51.046059"
       x="248.32199"
       y="781.76202" />
    <rect
       style="fill:#c87137;fill-opacity:1;stroke:#000000;stroke-width:2.59999989999999981;stroke-miterlimit:4;stroke-opacity:1;stroke-dasharray:none;stroke-dashoffset:0"
       id="rect2985-6-9-1"
       width="53.009369"
       height="51.046059"
       x="303.3497"
       y="780.2345" />
    <rect
       style="fill:#c87137;fill-opacity:1;stroke:#000000;stroke-width:2.59999989999999981;stroke-miterlimit:4;stroke-opacity:1;stroke-dasharray:none;stroke-dashoffset:0"
       id="rect2985-5-2-6-7"
       width="53.009369"
       height="51.046059"
       x="358.28568"
       y="781.25287" />
    <rect
       style="fill:#c87137;fill-opacity:1;stroke:#000000;stroke-width:2.59999989999999981;stroke-miterlimit:4;stroke-opacity:1;stroke-dasharray:none;stroke-dashoffset:0"
       id="rect2985-4-95-4"
       width="53.009369"
       height="51.046059"
       x="413.28589"
       y="780.48907" />
    <rect
       style="fill:#c87137;fill-opacity:1;stroke:#000000;stroke-width:2.59999989999999981;stroke-miterlimit:4;stroke-opacity:1;stroke-dasharray:none;stroke-dashoffset:0"
       id="rect2985-5-21-2-4"
       width="53.009369"
       height="51.046059"
       x="468.22186"
       y="781.50745" />
    <rect
       style="fill:#c87137;fill-opacity:1;stroke:#000000;stroke-width:2.59999989999999981;stroke-miterlimit:4;stroke-opacity:1;stroke-dasharray:none;stroke-dashoffset:0"
       id="rect2985-6-8-01-6"
       width="53.009369"
       height="51.046059"
       x="523.24957"
       y="779.97992" />
    <rect
       style="fill:#c87137;fill-opacity:1;stroke:#000000;stroke-width:2.59999989999999981;stroke-miterlimit:4;stroke-opacity:1;stroke-dasharray:none;stroke-dashoffset:0"
       id="rect2985-5-2-4-42-2"
       width="53.009369"
       height="51.046059"
       x="578.18555"
       y="780.99829" />
    <rect
       style="fill:#479254;fill-opacity:1;stroke:#000000;stroke-width:2.5999999;stroke-miterlimit:4;stroke-opacity:1;stroke-dasharray:none;stroke-dashoffset:0"
       id="rect2985-5-2-4-9-50-6"
       width="53.009369"
       height="51.046059"
       x="634.14905"
       y="780.74365" />
    <rect
       style="fill:#479254;fill-opacity:1;stroke:#000000;stroke-width:2.5999999;stroke-miterlimit:4;stroke-opacity:1;stroke-dasharray:none;stroke-dashoffset:0"
       id="rect2985-65-6-4"
       width="53.009369"
       height="51.046059"
       x="193.87689"
       y="834.3075" />
    <rect
       style="fill:#479254;fill-opacity:1;stroke:#000000;stroke-width:2.5999999;stroke-miterlimit:4;stroke-opacity:1;stroke-dasharray:none;stroke-dashoffset:0"
       id="rect2985-5-1-6-1"
       width="53.009369"
       height="51.046059"
       x="248.81287"
       y="835.32587" />
    <rect
       style="fill:#479254;fill-opacity:1;stroke:#000000;stroke-width:2.5999999;stroke-miterlimit:4;stroke-opacity:1;stroke-dasharray:none;stroke-dashoffset:0"
       id="rect2985-6-9-1-9"
       width="53.009369"
       height="51.046059"
       x="303.84058"
       y="833.79834" />
    <rect
       style="fill:#c87137;fill-opacity:1;stroke:#000000;stroke-width:2.59999989999999981;stroke-miterlimit:4;stroke-opacity:1;stroke-dasharray:none;stroke-dashoffset:0"
       id="rect2985-5-2-6-7-4"
       width="53.009369"
       height="51.046059"
       x="358.77655"
       y="834.81671" />
    <rect
       style="fill:#c87137;fill-opacity:1;stroke:#000000;stroke-width:2.59999989999999981;stroke-miterlimit:4;stroke-opacity:1;stroke-dasharray:none;stroke-dashoffset:0"
       id="rect2985-4-95-4-9"
       width="53.009369"
       height="51.046059"
       x="413.77679"
       y="834.05292" />
    <rect
       style="fill:#c87137;fill-opacity:1;stroke:#000000;stroke-width:2.59999989999999981;stroke-miterlimit:4;stroke-opacity:1;stroke-dasharray:none;stroke-dashoffset:0"
       id="rect2985-5-21-2-4-9"
       width="53.009369"
       height="51.046059"
       x="468.71271"
       y="835.07129" />
    <rect
       style="fill:#479254;fill-opacity:1;stroke:#000000;stroke-width:2.5999999;stroke-miterlimit:4;stroke-opacity:1;stroke-dasharray:none;stroke-dashoffset:0"
       id="rect2985-6-8-01-6-8"
       width="53.009369"
       height="51.046059"
       x="523.74042"
       y="833.54376" />
    <rect
       style="fill:#479254;fill-opacity:1;stroke:#000000;stroke-width:2.5999999;stroke-miterlimit:4;stroke-opacity:1;stroke-dasharray:none;stroke-dashoffset:0"
       id="rect2985-5-2-4-42-2-3"
       width="53.009369"
       height="51.046059"
       x="578.67639"
       y="834.56213" />
    <rect
       style="fill:#479254;fill-opacity:1;stroke:#000000;stroke-width:2.5999999;stroke-miterlimit:4;stroke-opacity:1;stroke-dasharray:none;stroke-dashoffset:0"
       id="rect2985-5-2-4-9-50-6-8"
       width="53.009369"
       height="51.046059"
       x="634.63989"
       y="834.3075" />
    <rect
       style="fill:#479254;fill-opacity:1;stroke:#000000;stroke-width:2.5999999;stroke-miterlimit:4;stroke-opacity:1;stroke-dasharray:none;stroke-dashoffset:0"
       id="rect2985-65-6-4-9"
       width="53.009369"
       height="51.046059"
       x="193.37688"
       y="887.18958" />
    <rect
       style="fill:#479254;fill-opacity:1;stroke:#000000;stroke-width:2.5999999;stroke-miterlimit:4;stroke-opacity:1;stroke-dasharray:none;stroke-dashoffset:0"
       id="rect2985-5-1-6-1-6"
       width="53.009369"
       height="51.046059"
       x="248.31284"
       y="888.20795" />
    <rect
       style="fill:#479254;fill-opacity:1;stroke:#000000;stroke-width:2.5999999;stroke-miterlimit:4;stroke-opacity:1;stroke-dasharray:none;stroke-dashoffset:0"
       id="rect2985-6-9-1-9-5"
       width="53.009369"
       height="51.046059"
       x="303.34058"
       y="886.68042" />
    <rect
       style="fill:#479254;fill-opacity:1;stroke:#000000;stroke-width:2.5999999;stroke-miterlimit:4;stroke-opacity:1;stroke-dasharray:none;stroke-dashoffset:0"
       id="rect2985-65-6-4-2"
       width="53.009369"
       height="51.046059"
       x="359.27658"
       y="886.20789" />
    <rect
       style="fill:#479254;fill-opacity:1;stroke:#000000;stroke-width:2.5999999;stroke-miterlimit:4;stroke-opacity:1;stroke-dasharray:none;stroke-dashoffset:0"
       id="rect2985-5-1-6-1-7"
       width="53.009369"
       height="51.046059"
       x="414.21255"
       y="887.22626" />
    <rect
       style="fill:#479254;fill-opacity:1;stroke:#000000;stroke-width:2.5999999;stroke-miterlimit:4;stroke-opacity:1;stroke-dasharray:none;stroke-dashoffset:0"
       id="rect2985-6-9-1-9-7"
       width="53.009369"
       height="51.046059"
       x="469.24026"
       y="885.69873" />
    <rect
       style="fill:#479254;fill-opacity:1;stroke:#000000;stroke-width:2.5999999;stroke-miterlimit:4;stroke-opacity:1;stroke-dasharray:none;stroke-dashoffset:0"
       id="rect2985-65-6-4-3"
       width="53.009369"
       height="51.046059"
       x="523.21295"
       y="886.20782" />
    <rect
       style="fill:#479254;fill-opacity:1;stroke:#000000;stroke-width:2.5999999;stroke-miterlimit:4;stroke-opacity:1;stroke-dasharray:none;stroke-dashoffset:0"
       id="rect2985-5-1-6-1-9"
       width="53.009369"
       height="51.046059"
       x="578.14893"
       y="887.2262" />
    <rect
       style="fill:#479254;fill-opacity:1;stroke:#000000;stroke-width:2.5999999;stroke-miterlimit:4;stroke-opacity:1;stroke-dasharray:none;stroke-dashoffset:0"
       id="rect2985-6-9-1-9-0"
       width="53.009369"
       height="51.046059"
       x="633.17664"
       y="885.69867" />
    <rect
       style="fill:#00ffff;fill-opacity:1;stroke:#000000;stroke-width:2.59999989999999981;stroke-miterlimit:4;stroke-opacity:1;stroke-dasharray:none;stroke-dashoffset:0"
       id="rect2985-5-2-4-9-54"
       width="53.009369"
       height="51.046059"
       x="688.14014"
       y="407.47849" />
    <rect
       style="fill:#00ffff;fill-opacity:1;stroke:#000000;stroke-width:2.59999989999999981;stroke-miterlimit:4;stroke-opacity:1;stroke-dasharray:none;stroke-dashoffset:0"
       id="rect2985-5-2-4-9-7-9"
       width="53.009369"
       height="51.046059"
       x="687.64929"
       y="460.36057" />
    <rect
       style="fill:#00ffff;fill-opacity:1;stroke:#000000;stroke-width:2.59999989999999981;stroke-miterlimit:4;stroke-opacity:1;stroke-dasharray:none;stroke-dashoffset:0"
       id="rect2985-5-2-4-9-5-28"
       width="53.009369"
       height="51.046059"
       x="688.63098"
       y="513.36993" />
    <rect
       style="fill:#00ffff;fill-opacity:1;stroke:#000000;stroke-width:2.59999989999999981;stroke-miterlimit:4;stroke-opacity:1;stroke-dasharray:none;stroke-dashoffset:0"
       id="rect2985-5-2-4-9-4"
       width="53.009369"
       height="51.046059"
       x="687.15851"
       y="566.50659" />
    <rect
       style="fill:#00ffff;fill-opacity:1;stroke:#000000;stroke-width:2.59999989999999981;stroke-miterlimit:4;stroke-opacity:1;stroke-dasharray:none;stroke-dashoffset:0"
       id="rect2985-5-2-4-9-7-7"
       width="53.009369"
       height="51.046059"
       x="686.66766"
       y="619.38867" />
    <rect
       style="fill:#00ffff;fill-opacity:1;stroke:#000000;stroke-width:2.59999989999999981;stroke-miterlimit:4;stroke-opacity:1;stroke-dasharray:none;stroke-dashoffset:0"
       id="rect2985-5-2-4-9-5-0"
       width="53.009369"
       height="51.046059"
       x="687.64935"
       y="672.39807" />
    <rect
       style="fill:#479254;fill-opacity:1;stroke:#000000;stroke-width:2.5999999;stroke-miterlimit:4;stroke-opacity:1;stroke-dasharray:none;stroke-dashoffset:0"
       id="rect2985-5-2-4-9-0"
       width="53.009369"
       height="51.046059"
       x="687.15851"
       y="726.51636" />
    <rect
       style="fill:#479254;fill-opacity:1;stroke:#000000;stroke-width:2.5999999;stroke-miterlimit:4;stroke-opacity:1;stroke-dasharray:none;stroke-dashoffset:0"
       id="rect2985-5-2-4-9-7-97"
       width="53.009369"
       height="51.046059"
       x="686.66766"
       y="779.39844" />
    <rect
       style="fill:#479254;fill-opacity:1;stroke:#000000;stroke-width:2.5999999;stroke-miterlimit:4;stroke-opacity:1;stroke-dasharray:none;stroke-dashoffset:0"
       id="rect2985-5-2-4-9-5-9"
       width="53.009369"
       height="51.046059"
       x="687.64935"
       y="832.40784" />
    <rect
       style="fill:#479254;fill-opacity:1;stroke:#000000;stroke-width:2.5999999;stroke-miterlimit:4;stroke-opacity:1;stroke-dasharray:none;stroke-dashoffset:0"
       id="rect2985-5-2-4-9-53"
       width="53.009369"
       height="51.046059"
       x="139.395"
       y="406.49683" />
    <rect
       style="fill:#479254;fill-opacity:1;stroke:#000000;stroke-width:2.5999999;stroke-miterlimit:4;stroke-opacity:1;stroke-dasharray:none;stroke-dashoffset:0"
       id="rect2985-5-2-4-9-7-95"
       width="53.009369"
       height="51.046059"
       x="138.90416"
       y="459.37888" />
    <rect
       style="fill:#479254;fill-opacity:1;stroke:#000000;stroke-width:2.5999999;stroke-miterlimit:4;stroke-opacity:1;stroke-dasharray:none;stroke-dashoffset:0"
       id="rect2985-5-2-4-9-5-4"
       width="53.009369"
       height="51.046059"
       x="139.88585"
       y="512.38831" />
    <rect
       style="fill:#479254;fill-opacity:1;stroke:#000000;stroke-width:2.5999999;stroke-miterlimit:4;stroke-opacity:1;stroke-dasharray:none;stroke-dashoffset:0"
       id="rect2985-5-2-4-9-3"
       width="53.009369"
       height="51.046059"
       x="137.4317"
       y="566.50659" />
    <rect
       style="fill:#479254;fill-opacity:1;stroke:#000000;stroke-width:2.5999999;stroke-miterlimit:4;stroke-opacity:1;stroke-dasharray:none;stroke-dashoffset:0"
       id="rect2985-5-2-4-9-7-2"
       width="53.009369"
       height="51.046059"
       x="136.94086"
       y="619.38867" />
    <rect
       style="fill:#479254;fill-opacity:1;stroke:#000000;stroke-width:2.5999999;stroke-miterlimit:4;stroke-opacity:1;stroke-dasharray:none;stroke-dashoffset:0"
       id="rect2985-5-2-4-9-5-00"
       width="53.009369"
       height="51.046059"
       x="137.92255"
       y="672.39807" />
    <rect
       style="fill:#479254;fill-opacity:1;stroke:#000000;stroke-width:2.5999999;stroke-miterlimit:4;stroke-opacity:1;stroke-dasharray:none;stroke-dashoffset:0"
       id="rect2985-5-2-4-9-8"
       width="53.009369"
       height="51.046059"
       x="138.41335"
       y="725.53473" />
    <rect
       style="fill:#479254;fill-opacity:1;stroke:#000000;stroke-width:2.5999999;stroke-miterlimit:4;stroke-opacity:1;stroke-dasharray:none;stroke-dashoffset:0"
       id="rect2985-5-2-4-9-7-6"
       width="53.009369"
       height="51.046059"
       x="137.9225"
       y="778.41675" />
    <rect
       style="fill:#479254;fill-opacity:1;stroke:#000000;stroke-width:2.5999999;stroke-miterlimit:4;stroke-opacity:1;stroke-dasharray:none;stroke-dashoffset:0"
       id="rect2985-5-2-4-9-5-01"
       width="53.009369"
       height="51.046059"
       x="138.90419"
       y="831.42621" />
    <rect
       style="fill:#479254;fill-opacity:1;stroke:#000000;stroke-width:2.5999999;stroke-miterlimit:4;stroke-opacity:1;stroke-dasharray:none;stroke-dashoffset:0"
       id="rect2985-65-6-4-9-8"
       width="53.009369"
       height="51.046059"
       x="140.37666"
       y="886.46252" />
    <rect
       style="fill:#479254;fill-opacity:1;stroke:#000000;stroke-width:2.5999999;stroke-miterlimit:4;stroke-opacity:1;stroke-dasharray:none;stroke-dashoffset:0"
       id="rect2985-65-6-4-9-80"
       width="53.009369"
       height="51.046059"
       x="687.15851"
       y="884.49915" />
    <rect
       style="fill:#479254;fill-opacity:1;stroke:#000000;stroke-width:2.5999999;stroke-miterlimit:4;stroke-opacity:1;stroke-dasharray:none;stroke-dashoffset:0"
       id="rect2985-65-6-4-9-86"
       width="53.009369"
       height="51.046059"
       x="192.88605"
       y="355.24152" />
    <rect
       style="fill:#479254;fill-opacity:1;stroke:#000000;stroke-width:2.5999999;stroke-miterlimit:4;stroke-opacity:1;stroke-dasharray:none;stroke-dashoffset:0"
       id="rect2985-5-1-6-1-6-4"
       width="53.009369"
       height="51.046059"
       x="247.82201"
       y="356.25989" />
    <rect
       style="fill:#479254;fill-opacity:1;stroke:#000000;stroke-width:2.5999999;stroke-miterlimit:4;stroke-opacity:1;stroke-dasharray:none;stroke-dashoffset:0"
       id="rect2985-6-9-1-9-5-8"
       width="53.009369"
       height="51.046059"
       x="302.84973"
       y="354.73236" />
    <rect
       style="fill:#00ffff;fill-opacity:1;stroke:#000000;stroke-width:2.59999989999999981;stroke-miterlimit:4;stroke-opacity:1;stroke-dasharray:none;stroke-dashoffset:0"
       id="rect2985-65-6-4-2-7"
       width="53.009369"
       height="51.046059"
       x="358.78574"
       y="354.25983" />
    <rect
       style="fill:#00ffff;fill-opacity:1;stroke:#000000;stroke-width:2.59999989999999981;stroke-miterlimit:4;stroke-opacity:1;stroke-dasharray:none;stroke-dashoffset:0"
       id="rect2985-5-1-6-1-7-5"
       width="53.009369"
       height="51.046059"
       x="413.72171"
       y="355.2782" />
    <rect
       style="fill:#00ffff;fill-opacity:1;stroke:#000000;stroke-width:2.59999989999999981;stroke-miterlimit:4;stroke-opacity:1;stroke-dasharray:none;stroke-dashoffset:0"
       id="rect2985-6-9-1-9-7-0"
       width="53.009369"
       height="51.046059"
       x="468.74942"
       y="353.75067" />
    <rect
       style="fill:#00ffff;fill-opacity:1;stroke:#000000;stroke-width:2.59999989999999981;stroke-miterlimit:4;stroke-opacity:1;stroke-dasharray:none;stroke-dashoffset:0"
       id="rect2985-65-6-4-3-6"
       width="53.009369"
       height="51.046059"
       x="522.72211"
       y="354.25977" />
    <rect
       style="fill:#00ffff;fill-opacity:1;stroke:#000000;stroke-width:2.59999989999999981;stroke-miterlimit:4;stroke-opacity:1;stroke-dasharray:none;stroke-dashoffset:0"
       id="rect2985-5-1-6-1-9-6"
       width="53.009369"
       height="51.046059"
       x="577.65808"
       y="355.27814" />
    <rect
       style="fill:#00ffff;fill-opacity:1;stroke:#000000;stroke-width:2.59999989999999981;stroke-miterlimit:4;stroke-opacity:1;stroke-dasharray:none;stroke-dashoffset:0"
       id="rect2985-6-9-1-9-0-1"
       width="53.009369"
       height="51.046059"
       x="632.68579"
       y="353.75061" />
    <rect
       style="fill:#479254;fill-opacity:1;stroke:#000000;stroke-width:2.5999999;stroke-miterlimit:4;stroke-opacity:1;stroke-dasharray:none;stroke-dashoffset:0"
       id="rect2985-65-6-4-9-8-4"
       width="53.009369"
       height="51.046059"
       x="139.88583"
       y="354.51447" />
    <rect
       style="fill:#00ffff;fill-opacity:1;stroke:#000000;stroke-width:2.59999989999999981;stroke-miterlimit:4;stroke-opacity:1;stroke-dasharray:none;stroke-dashoffset:0"
       id="rect2985-65-6-4-9-80-9"
       width="53.009369"
       height="51.046059"
       x="686.66766"
       y="352.55109" />
    <path
       style="fill:#000080;fill-opacity:1;stroke:#000000;stroke-width:2.5999999;stroke-miterlimit:4;stroke-opacity:1;stroke-dasharray:none;stroke-dashoffset:0"
       id="path4290"
       d="m 124.05434,41.959866 c -1.72949,3.555747 -3.17171,7.240938 -4.61765,10.918527 -1.54547,3.625265 -2.71275,7.372282 -3.75258,11.167552 -0.73191,3.376193 -1.56272,6.726947 -2.46145,10.062144 -1.16852,4.210372 -1.93719,8.504713 -2.65802,12.809396 -0.64022,5.02986 -1.25494,10.067321 -1.67334,15.121615 -0.43668,5.35688 -0.35924,10.73481 -0.59798,16.09979 -0.20415,5.51963 -0.87737,11.00192 -1.33645,16.50225 -0.42779,5.92191 -0.4886,11.86116 -0.52677,17.7957 0.0789,6.0857 -0.21212,12.1663 -0.70713,18.23002 -0.77769,7.1981 -1.99505,14.3261 -2.63437,21.54404 -0.74706,10.0107 -1.25908,20.0314 -1.55139,30.06518 -0.0594,11.28882 -1.25043,22.52645 -2.096363,33.77258 -0.799597,11.05254 -0.975518,22.13614 -1.077594,33.21298 0.0054,10.80685 -0.149518,21.6163 0.0882,32.42118 0.05291,1.79509 0.108227,3.59012 0.158744,5.38529 0.125614,4.46374 0.119038,6.94919 0.499775,11.43017 0.492186,5.79266 1.388618,11.56049 2.122098,17.32568 1.01802,8.5649 1.72247,17.16517 2.14153,25.77948 0.1075,4.06039 0.49311,8.12814 -0.0907,12.16391 -0.4291,2.51385 -1.45407,4.85969 -2.06151,7.32843 -0.49327,2.83248 -0.9019,5.68024 -1.18862,8.54161 -1.058356,8.59915 -1.289214,17.26604 -1.504649,25.91809 -0.170042,9.14578 -0.11803,18.29343 -0.01265,27.43952 -0.121283,8.30622 0.07395,16.60508 0.297871,24.90761 0.273258,8.33024 0.339197,16.66609 0.951383,24.98031 0.522178,4.68612 1.674688,9.25542 2.257498,13.93527 0.89027,6.00109 0.96311,12.07644 1.33468,18.12062 0.14071,5.4862 1.19882,10.8551 2.18354,16.2301 0.65479,3.3723 0.87744,6.8028 1.19411,10.21766 0.36044,4.89447 0.64455,9.79058 1.07299,14.68081 0.32511,3.85865 0.54904,7.72546 0.68559,11.5952 0.0921,3.15768 0.44574,6.31061 0.78091,9.45219 0.42166,3.41622 0.84246,6.83168 1.09115,10.26547 0.11028,2.23287 0.92648,4.21416 1.94973,6.16297 0.98667,1.60383 2.20482,2.76785 3.93317,3.50796 2.38663,1.19228 4.84312,2.23114 7.39626,3.00723 2.14065,0.85339 4.38421,1.31962 6.55662,2.06606 0.69927,-0.23177 1.53762,1.04702 2.18635,0.75647 0.15927,-0.0713 0.1373,-0.3209 0.20595,-0.48135 0,0 -11.60443,8.91195 -11.60443,8.91195 l 0,0 c -0.94938,-0.32983 -1.85855,-0.76181 -2.82839,-1.03597 -2.14061,-0.74128 -4.35707,-1.24645 -6.46229,-2.09868 -2.58516,-0.89346 -5.11101,-1.94618 -7.573,-3.13903 -1.88888,-1.03457 -3.30718,-2.4141 -4.394004,-4.29171 -1.129643,-2.12277 -2.054458,-4.29178 -2.208116,-6.72716 -0.154713,-3.42667 -0.453786,-6.84518 -0.939895,-10.2418 -0.43599,-3.15743 -0.808061,-6.35028 -0.940598,-9.53195 -0.03071,-3.87818 -0.13856,-7.75631 -0.44181,-11.62402 -0.37106,-4.86642 -0.789833,-9.72797 -1.167104,-14.59324 -0.404603,-3.38117 -0.633235,-6.77511 -1.126811,-10.14556 -0.899997,-5.4716 -1.813382,-10.9425 -1.996564,-16.50029 -0.404781,-5.98385 -0.546773,-11.99878 -1.538638,-17.92727 -0.541948,-4.72982 -1.67904,-9.35458 -2.127834,-14.09388 -0.428172,-8.3933 -0.298816,-16.79687 -0.623806,-25.19477 -0.323069,-8.26563 -0.763228,-16.5289 -0.6036,-24.80459 0.127923,-9.21703 0.240825,-18.43427 0.373047,-27.65124 0.124048,-8.56141 0.194731,-17.13691 0.849123,-25.67771 0.157611,-2.89919 0.514034,-5.76664 0.912135,-8.63904 0.521402,-2.51268 1.546938,-4.84154 2.191082,-7.31623 0.841156,-3.94886 0.412994,-8.01601 0.483852,-12.02699 -0.164517,-8.65537 -0.594049,-17.30872 -1.623539,-25.90934 -0.695681,-5.80007 -1.566033,-11.59899 -2.120233,-17.41432 -0.448301,-4.70411 -0.452041,-6.75394 -0.604606,-11.42959 -0.05863,-1.79692 -0.114751,-3.59392 -0.172126,-5.39089 -0.250516,-10.82677 -0.09527,-21.65811 -0.05467,-32.48684 0.101678,-11.09622 0.21184,-22.20072 0.996916,-33.27451 0.871211,-11.23434 2.146695,-22.45616 2.180651,-33.73726 0.212631,-10.0024 0.584635,-19.99609 1.214683,-29.9817 0.531158,-7.19799 1.676024,-14.29708 2.459839,-21.46345 0.537075,-6.02422 0.809032,-12.07333 0.737166,-18.12196 0.04756,-5.95686 0.08667,-11.91772 0.448832,-17.86569 0.380951,-5.49815 1.163051,-10.95893 1.36512,-16.47084 0.269529,-5.36737 0.111662,-10.74914 0.513342,-16.11245 0.415101,-5.08523 1.051929,-10.145926 1.616103,-15.215864 0.665138,-4.325263 1.377644,-8.642095 2.480279,-12.880457 0.86495,-3.346937 1.79027,-6.67817 2.46537,-10.070007 1.00967,-3.8506 2.16802,-7.655968 3.72613,-11.325053 1.38972,-3.649656 2.89354,-7.257495 4.38346,-10.867176 0,0 13.21602,-6.073137 13.21602,-6.073137 z"
       inkscape:connector-curvature="0"
       transform="translate(0,308.2677)" />
    <path
       style="fill:#000080;fill-opacity:1;stroke:#000000;stroke-width:2.5999999;stroke-miterlimit:4;stroke-opacity:1;stroke-dasharray:none;stroke-dashoffset:0"
       id="path4292"
       d="m 16.374265,292.76607 c 0.379724,2.90087 0.569949,5.82019 0.724385,8.74016 0.05846,2.8022 0.543235,5.57136 0.829058,8.35604 0.24551,2.73263 0.257706,5.4757 0.28139,8.2166 0.01321,2.64721 0.01791,5.29449 0.02904,7.94174 0.0054,2.12331 0.02131,4.24667 0.0025,6.36993 -0.01247,2.45085 -0.006,4.90176 -0.01854,7.35259 0.06727,2.28284 0.03893,4.53494 -0.351037,6.78661 -0.406614,2.02082 -0.500627,4.08125 -0.567143,6.13563 -0.02793,1.03042 -0.03331,2.0612 -0.03956,3.0919 0,0 -12.9404663,6.58417 -12.9404663,6.58417 l 0,0 c 0.00561,-1.04227 0.010644,-2.0846 0.033474,-3.12668 0.054192,-2.1094 0.1034218,-4.23273 0.4421986,-6.31887 0.419534,-2.19229 0.7211254,-4.33946 0.537968,-6.58774 -0.012544,-2.44476 -0.00618,-4.88958 -0.017935,-7.33436 -0.018069,-2.12591 1.178e-4,-4.25189 0.01028,-6.37782 0.016717,-2.65135 0.032117,-5.30265 0.021514,-7.95406 -0.015672,-2.69879 -0.050759,-5.40076 -0.2468822,-8.0934 -0.2414778,-2.81721 -0.7473923,-5.60907 -0.8276284,-8.43619 -0.106479,-2.84741 -0.2425676,-5.70901 -0.7831942,-8.51302 0,0 12.8805841,-6.83323 12.8805841,-6.83323 z"
       inkscape:connector-curvature="0"
       transform="translate(0,308.2677)" />
    <path
       style="fill:#000080;fill-opacity:1;stroke:#000000;stroke-width:2.5999999;stroke-miterlimit:4;stroke-opacity:1;stroke-dasharray:none;stroke-dashoffset:0"
       id="path4294"
       d="m 24.463062,295.20709 c 2.243183,2.4581 4.218613,5.14523 6.137558,7.86143 1.823202,2.68998 3.832638,5.24093 5.763196,7.85153 1.439758,2.05287 2.923135,4.102 4.096479,6.32265 0.961202,1.02327 1.221967,3.49069 2.556659,3.95478 3.611326,-4.12585 2.252693,-1.46778 -11.218798,5.9507 -0.252669,0.13914 0.448321,-0.36435 0.654559,-0.56601 0.366744,-0.3586 1.120165,-1.24402 1.439548,-1.61201 1.489591,-1.73896 2.657152,-3.71061 3.769305,-5.70235 1.196594,-2.09639 2.46604,-4.13438 3.943224,-6.04441 1.391393,-1.77074 2.613784,-3.65638 4.015661,-5.41855 1.472659,-2.17539 2.951297,-4.32817 4.707217,-6.28702 4.823736,-4.49826 12.734459,-13.08255 18.682987,-11.44043 0.287744,0.30236 0.639026,0.55501 0.863232,0.90707 1.447372,2.27274 0.755134,7.64809 0.674551,10.28447 -0.282716,3.90602 -0.759206,7.79367 -1.049708,11.69927 -0.157869,2.28654 -0.201871,4.57903 -0.222392,6.87029 -0.01896,2.39746 -0.0091,4.79489 0.0027,7.19237 0.01233,2.26874 -0.0011,4.53741 0.0043,6.80618 0.01592,2.23775 -0.0035,4.4754 -0.002,6.71314 0.0814,2.18102 -0.387391,4.32491 -0.659845,6.47783 -0.03316,0.32738 -0.06631,0.65477 -0.09947,0.98215 0,0 -12.999845,6.47358 -12.999845,6.47358 l 0,0 c 0.02842,-0.3391 0.05685,-0.67821 0.08527,-1.01731 0.235286,-2.11677 0.749005,-4.20775 0.763014,-6.33785 0.0015,-2.23691 -0.01773,-4.47372 -0.0023,-6.71064 0.0047,-2.26838 -0.0097,-4.53661 -0.0032,-6.80496 0.0056,-2.40079 0.0032,-4.80151 -0.0049,-7.20226 0.0047,-2.33403 0.01508,-4.66992 0.227098,-6.99674 0.352285,-3.91535 0.907975,-7.80802 1.256346,-11.72385 0.05413,-1.55194 0.556758,-7.7866 -0.32878,-8.98914 -0.06316,-0.0858 -0.205643,-0.0556 -0.308465,-0.0834 -4.455927,2.06814 -2.615877,1.23551 10.879927,-6.49969 0.40505,-0.23216 -0.757389,0.5473 -1.116465,0.84568 -0.768632,0.63869 -1.485016,1.33778 -2.224851,2.00962 -0.365409,0.33183 -0.728438,0.66627 -1.092656,0.9994 -1.864868,1.78057 -3.399636,3.86217 -4.696903,6.09013 -1.321822,1.84571 -2.827531,3.54859 -4.042331,5.47938 -1.525328,1.82038 -2.83803,3.7575 -4.015142,5.81882 -1.160293,2.02303 -2.229714,4.09929 -3.656226,5.95732 -4.90371,5.8239 -1.49032,2.58384 -14.9883,10.09496 -0.234885,0.1307 -0.544677,0.0646 -0.806401,0.003 -0.271296,-0.0635 -0.500393,-0.24526 -0.750589,-0.3679 -1.371453,-1.27499 -1.838864,-3.05854 -2.826005,-4.6127 -1.10388,-2.17301 -2.569048,-4.15 -3.927151,-6.16756 -1.897386,-2.64101 -3.903453,-5.20432 -5.725563,-7.90089 -1.867416,-2.6579 -3.779058,-5.33501 -6.166938,-7.5541 0,0 12.412316,-7.60628 12.412316,-7.60628 z"
       inkscape:connector-curvature="0"
       transform="translate(0,308.2677)" />
    <path
       style="fill:#000080;fill-opacity:1;stroke:#000000;stroke-width:2.5999999;stroke-miterlimit:4;stroke-opacity:1;stroke-dasharray:none;stroke-dashoffset:0"
       id="path4292-9"
       d="m 273.73184,966.0124 c 0.37972,2.90087 0.56994,5.82019 0.72438,8.74016 0.0585,2.8022 0.54324,5.57136 0.82906,8.35604 0.24551,2.73263 0.2577,5.4757 0.28139,8.2166 0.0132,2.64721 0.0179,5.29449 0.029,7.94174 0.005,2.12336 0.0213,4.24666 0.002,6.36996 -0.0125,2.4508 -0.006,4.9017 -0.0185,7.3526 0.0673,2.2828 0.0389,4.5349 -0.35104,6.7866 -0.40661,2.0208 -0.50063,4.0812 -0.56714,6.1356 -0.0279,1.0304 -0.0333,2.0612 -0.0396,3.0919 0,0 -12.94047,6.5842 -12.94047,6.5842 l 0,0 c 0.006,-1.0423 0.0106,-2.0846 0.0335,-3.1267 0.0542,-2.1094 0.10342,-4.2327 0.44219,-6.3189 0.41954,-2.1923 0.72113,-4.3394 0.53797,-6.5877 -0.0125,-2.4448 -0.006,-4.8896 -0.0179,-7.3344 -0.0181,-2.1259 1.2e-4,-4.2519 0.0103,-6.3778 0.0167,-2.6513 0.0321,-5.3026 0.0215,-7.95406 -0.0157,-2.69879 -0.0508,-5.40076 -0.24688,-8.0934 -0.24148,-2.81721 -0.74739,-5.60907 -0.82763,-8.43619 -0.10648,-2.84741 -0.24257,-5.70901 -0.78319,-8.51302 0,0 12.88058,-6.83323 12.88058,-6.83323 z"
       inkscape:connector-curvature="0" />
    <path
       style="fill:#000080;fill-opacity:1;stroke:#000000;stroke-width:2.5999999;stroke-miterlimit:4;stroke-opacity:1;stroke-dasharray:none;stroke-dashoffset:0"
       id="path4294-5"
       d="m 281.82063,968.45342 c 2.24319,2.4581 4.21862,5.14523 6.13756,7.86143 1.8232,2.68998 3.83264,5.24093 5.7632,7.85153 1.43975,2.05287 2.92313,4.102 4.09648,6.32265 0.9612,1.02327 1.22196,3.49069 2.55665,3.95478 3.61133,-4.12585 2.2527,-1.46778 -11.21879,5.95069 -0.25267,0.1392 0.44832,-0.3643 0.65456,-0.566 0.36674,-0.3586 1.12016,-1.24402 1.43954,-1.61201 1.48959,-1.73896 2.65716,-3.71061 3.76931,-5.70235 1.19659,-2.09639 2.46604,-4.13438 3.94322,-6.04441 1.3914,-1.77074 2.61379,-3.65638 4.01566,-5.41855 1.47266,-2.17539 2.9513,-4.32817 4.70722,-6.28702 4.82374,-4.49826 12.73446,-13.08255 18.68299,-11.44043 0.28774,0.30236 0.63902,0.55501 0.86323,0.90707 1.44737,2.27274 0.75513,7.64809 0.67455,10.28447 -0.28272,3.90602 -0.75921,7.79367 -1.04971,11.69927 -0.15787,2.28654 -0.20187,4.57903 -0.22239,6.87029 -0.019,2.39746 -0.009,4.79489 0.003,7.19237 0.0123,2.2687 -0.001,4.5374 0.004,6.8062 0.0159,2.2377 -0.004,4.4754 -0.002,6.7131 0.0814,2.181 -0.38739,4.3249 -0.65984,6.4779 -0.0332,0.3273 -0.0663,0.6547 -0.0995,0.9821 0,0 -12.99985,6.4736 -12.99985,6.4736 l 0,0 c 0.0284,-0.3391 0.0568,-0.6782 0.0853,-1.0173 0.23529,-2.1168 0.74901,-4.2078 0.76301,-6.3379 0.002,-2.2369 -0.0177,-4.4737 -0.002,-6.7106 0.005,-2.2684 -0.01,-4.5366 -0.003,-6.805 0.006,-2.4008 0.003,-4.8015 -0.005,-7.20224 0.005,-2.33403 0.0151,-4.66992 0.2271,-6.99674 0.35229,-3.91535 0.90798,-7.80802 1.25635,-11.72385 0.0541,-1.55194 0.55676,-7.7866 -0.32878,-8.98914 -0.0632,-0.0858 -0.20564,-0.0556 -0.30847,-0.0834 -4.45592,2.06814 -2.61587,1.23551 10.87993,-6.49969 0.40505,-0.23216 -0.75739,0.5473 -1.11646,0.84568 -0.76864,0.63869 -1.48502,1.33778 -2.22486,2.00962 -0.3654,0.33183 -0.72843,0.66627 -1.09265,0.9994 -1.86487,1.78057 -3.39964,3.86217 -4.6969,6.09013 -1.32183,1.84571 -2.82754,3.54859 -4.04234,5.47938 -1.52532,1.82038 -2.83803,3.7575 -4.01514,5.81882 -1.16029,2.02303 -2.22971,4.09929 -3.65622,5.95732 -4.90371,5.8239 -1.49032,2.58384 -14.9883,10.09501 -0.23489,0.1307 -0.54468,0.065 -0.8064,0 -0.2713,-0.063 -0.5004,-0.2453 -0.75059,-0.3679 -1.37146,-1.275 -1.83887,-3.05859 -2.82601,-4.61275 -1.10388,-2.17301 -2.56905,-4.15 -3.92715,-6.16756 -1.89739,-2.64101 -3.90345,-5.20432 -5.72556,-7.90089 -1.86742,-2.6579 -3.77906,-5.33501 -6.16694,-7.5541 0,0 12.41232,-7.60628 12.41232,-7.60628 z"
       inkscape:connector-curvature="0" />
    <path
       style="fill:#000080;fill-opacity:1;stroke:#000000;stroke-width:2.5999999;stroke-miterlimit:4;stroke-opacity:1;stroke-dasharray:none;stroke-dashoffset:0"
       id="path4317"
       d="m 369.01942,655.03959 c 2.66023,0.99669 5.13446,2.30214 7.55413,3.78182 2.5755,1.20425 4.77297,2.93512 6.94251,4.73188 1.31135,1.43436 2.77072,2.7241 4.08524,4.15225 1.15384,1.15627 2.3985,2.2159 3.60453,3.3217 1.61549,1.46383 3.37919,2.74638 4.92989,4.28511 1.27217,1.19545 2.77509,2.09208 4.06885,3.25746 1.22834,0.87698 2.58274,1.42103 3.29661,2.81576 0.38055,1.83272 -1.14655,2.97788 -2.39916,4.04516 -1.53859,1.29312 -3.26445,2.35787 -4.92249,3.49503 -1.72496,1.22853 -3.53737,2.32675 -5.35676,3.41019 -33.34111,19.17974 -3.99345,2.29142 -1.85912,1.08457 0.29805,-0.16852 -0.57296,0.3756 -0.84901,0.57814 -0.84026,0.61653 -1.62862,1.31065 -2.43663,1.96825 -1.42639,1.1156 -2.67512,2.44333 -4.13838,3.50893 -1.53135,1.05253 -3.0673,2.09714 -4.55234,3.21979 -1.59051,1.04437 -3.02382,2.3161 -4.45258,3.56995 -1.02458,0.76794 -1.87454,1.7087 -2.66697,2.70505 0,0 -13.33845,5.74109 -13.33845,5.74109 l 0,0 c 0.77386,-1.07423 1.50496,-2.16636 2.52476,-3.03302 1.55593,-1.1397 2.88869,-2.52875 4.39332,-3.71554 1.62939,-0.86146 2.86622,-2.33658 4.58012,-3.06415 1.56256,-1.36795 -0.34768,0.23334 1.36822,-0.97984 1.02489,-0.72462 1.70222,-1.86464 2.83421,-2.47094 0.68349,-0.66587 2.45033,-2.30317 3.20938,-2.75715 3.35941,-2.00924 29.48765,-17.15132 1.86508,-1.12897 1.78484,-1.11326 3.6829,-2.09272 5.34201,-3.36687 1.70923,-1.02882 3.22566,-2.29686 4.98782,-3.23004 0.88282,-0.92187 1.94472,-1.89267 3.1043,-2.41977 -0.0869,-0.76556 -2.39955,-1.59387 -2.89867,-2.28075 -1.35123,-1.13073 -2.83122,-2.10542 -4.08678,-3.34935 -1.54933,-1.50604 -3.27067,-2.80017 -4.88537,-4.23169 -1.26913,-1.10496 -2.56014,-2.18101 -3.70758,-3.41599 -1.28806,-1.36885 -2.63039,-2.6869 -3.93174,-4.04296 -2.0747,-1.79242 -4.30412,-3.32428 -6.7553,-4.57226 -2.44158,-1.42988 -4.9668,-2.62184 -7.62203,-3.60648 0,0 12.16838,-8.00636 12.16838,-8.00636 z"
       inkscape:connector-curvature="0"
       transform="translate(0,308.2677)" />
    <path
       style="fill:#000080;fill-opacity:1;stroke:#000000;stroke-width:2.5999999;stroke-miterlimit:4;stroke-opacity:1;stroke-dasharray:none;stroke-dashoffset:0"
       id="path4319"
       d="m 441.43088,654.01511 c 0.61446,3.00148 1.1416,6.01945 1.74274,9.024 0.64192,3.34543 0.77659,6.75261 1.24108,10.12261 0.32487,3.25456 0.88939,6.47516 1.30071,9.719 0.27558,2.99299 0.87317,5.93822 1.17074,8.92969 0.29337,2.92503 0.27578,5.86614 0.30009,8.80189 0.0149,2.74827 0.0217,5.49662 0.0343,8.24494 0.01,2.08675 0.0125,4.17352 0.014,6.2603 0,0 -12.94231,6.59403 -12.94231,6.59403 l 0,0 c 0.003,-2.09359 0.007,-4.18718 0.0227,-6.28072 0.0198,-2.75604 0.0393,-5.51203 0.0348,-8.26817 -0.0112,-2.89372 -0.0507,-5.79022 -0.25913,-8.67749 -0.27636,-2.98746 -0.84122,-5.92994 -1.12651,-8.91427 -0.3671,-3.24384 -0.98833,-6.4487 -1.28925,-9.70048 -0.44493,-3.3475 -0.60663,-6.72084 -1.19313,-10.04918 -0.58665,-3.00226 -1.06846,-6.03401 -1.93136,-8.97292 0,0 12.88059,-6.83323 12.88059,-6.83323 z"
       inkscape:connector-curvature="0"
       transform="translate(0,308.2677)" />
    <path
       style="fill:#000080;fill-opacity:1;stroke:#000000;stroke-width:2.5999999;stroke-miterlimit:4;stroke-opacity:1;stroke-dasharray:none;stroke-dashoffset:0"
       id="path4321"
       d="m 481.73935,654.89771 c 0.84127,2.79477 1.83872,5.53848 2.71153,8.32262 0.68054,2.17523 0.92088,4.43615 1.03726,6.70086 0.0542,2.63383 0.0169,5.26861 -7.7e-4,7.90271 -0.0247,2.9654 0.005,5.93069 -0.0111,8.89613 -0.0418,2.94735 0.0867,5.89922 -0.0838,8.84275 -0.31711,2.53961 -0.58756,5.08082 -0.75215,7.63508 -0.0137,2.35285 -0.15235,4.67415 -0.51062,6.99895 -0.17146,1.21994 -0.30926,2.43866 -0.59849,3.63749 0,0 -13.24031,6.14466 -13.24031,6.14466 l 0,0 c 0.60632,-1.06144 0.67339,-2.20053 0.80906,-3.39909 0.3728,-2.2892 0.69659,-4.55003 0.61233,-6.88161 0.10998,-2.57397 0.37137,-5.139 0.7552,-7.68682 0.32899,-2.89919 0.0732,-5.8294 0.15358,-8.74234 -0.0123,-2.96694 0.0245,-5.93353 0.0141,-8.90046 -0.005,-2.60036 0.003,-5.2012 -0.0587,-7.80101 -0.0676,-2.15857 -0.21446,-4.32241 -0.80392,-6.41239 -0.80455,-2.78017 -1.72896,-5.53906 -2.80022,-8.22619 0,0 12.76698,-7.03134 12.76698,-7.03134 z"
       inkscape:connector-curvature="0"
       transform="translate(0,308.2677)" />
    <path
       style="fill:#000080;fill-opacity:1;stroke:#000000;stroke-width:2.5999999;stroke-miterlimit:4;stroke-opacity:1;stroke-dasharray:none;stroke-dashoffset:0"
       id="path4323"
       d="m 469.39139,693.40064 c -4.06189,-0.10116 -8.12632,-0.097 -12.18929,-0.0828 -3.09737,-0.17857 -6.17459,-0.58115 -9.2698,-0.78781 -2.01287,-0.11759 -4.02979,-0.12279 -6.04537,-0.12764 -1.56068,-0.1151 -3.01194,0.026 -4.51521,0.40699 0,0 11.60568,-8.78771 11.60568,-8.78771 l 0,0 c 1.54749,-0.23241 3.10734,-0.15291 4.66863,-0.15198 2.0276,0.0194 4.05691,0.055 6.07778,0.23635 3.00906,0.28083 6.00457,0.73274 9.02905,0.81968 4.13896,0.0146 8.27921,0.0158 12.41717,-0.0828 0,0 -11.77864,8.55768 -11.77864,8.55768 z"
       inkscape:connector-curvature="0"
       transform="translate(0,308.2677)" />
    <path
       style="fill:#000080;fill-opacity:1;stroke:#000000;stroke-width:2.5999999;stroke-miterlimit:4;stroke-opacity:1;stroke-dasharray:none;stroke-dashoffset:0"
       id="path4325"
       d="m 507.19934,658.07959 c 0.3105,2.9641 0.92847,5.89406 1.65446,8.78255 0.6633,2.48985 1.36414,4.9577 1.79043,7.50265 0.34927,2.24447 0.38173,4.51629 0.38078,6.78207 0.004,2.62747 -0.007,5.25484 6.7e-4,7.88232 0.12073,2.43318 -0.0801,4.83527 -0.41214,7.24189 -0.35221,2.57216 -0.46194,5.16811 -0.52744,7.76073 -0.0322,2.10216 0.041,4.1947 -0.26036,6.27965 -0.071,0.89889 -0.35009,1.73427 -0.70718,2.55196 0,0 -13.60599,5.34087 -13.60599,5.34087 l 0,0 c 1.0322,0.0364 1.18662,-0.50915 1.26799,-1.50993 0.37256,-2.03199 0.39187,-4.05164 0.37607,-6.11825 0.0748,-2.63949 0.21139,-5.27728 0.48246,-7.90476 0.28966,-2.35806 0.65007,-4.68491 0.48829,-7.07304 0.0166,-2.6245 0.024,-5.24901 0.0118,-7.87354 -0.0345,-2.19706 -0.0406,-4.40099 -0.30014,-6.58605 -0.35652,-2.52568 -1.05048,-4.95268 -1.68057,-7.4178 -0.70389,-2.93005 -1.30466,-5.88328 -1.83492,-8.84897 0,0 12.87575,-6.79235 12.87575,-6.79235 z"
       inkscape:connector-curvature="0"
       transform="translate(0,308.2677)" />
    <path
       style="fill:#000080;fill-opacity:1;stroke:#000000;stroke-width:2.5999999;stroke-miterlimit:4;stroke-opacity:1;stroke-dasharray:none;stroke-dashoffset:0"
       id="path4327"
       d="m 513.1374,658.33133 c 2.43902,-0.099 4.96196,-0.3329 7.34403,-0.91042 2.52127,-0.5994 5.09784,-0.80716 7.67756,-0.9443 2.20808,-0.0987 4.41881,-0.10028 6.62861,-0.1015 1.95778,-0.10393 3.81236,-0.008 5.62894,0.76138 1.56155,0.99674 2.66726,2.45112 3.35433,4.15138 0.60881,1.88562 0.6833,3.84429 0.43525,5.79396 -0.22846,2.0743 -0.75225,4.07159 -1.46141,6.02814 -0.53999,1.99207 -1.37573,3.64076 -2.91728,5.01589 -0.28909,0.20367 -0.56221,0.43215 -0.86727,0.61101 -4.42795,2.59614 -8.85667,5.19194 -13.32836,7.71199 -0.30891,0.17409 -0.67162,0.22894 -0.99995,0.36283 -0.98911,0.40336 -1.97912,0.81417 -2.94274,1.27556 -2.19538,0.79704 -4.42973,1.52029 -6.72897,1.96896 -2.30424,0.42169 -4.58361,0.91709 -6.91781,1.17028 -1.81799,0.19499 -3.64859,0.1445 -5.47107,0.25214 -0.0392,0.0111 -0.15123,0.0559 -0.11752,0.0331 12.00842,-8.11706 8.41004,-9.75282 15.78579,-7.45359 1.99323,0.9509 4.00896,1.93263 5.85774,3.14754 1.83408,1.46676 3.57839,3.0416 5.22333,4.7174 1.81057,1.56275 3.61533,3.13308 5.24924,4.88143 1.29153,1.38618 2.92709,2.30001 4.52691,3.26904 1.71106,0.84795 3.21346,2.0328 4.98718,2.75906 2.12594,1.01698 4.27956,2.03194 6.33549,3.18601 1.15165,0.58671 0.57647,0.32641 1.72241,0.78782 0,0 -12.10488,8.04576 -12.10488,8.04576 l 0,0 c -1.18549,-0.57052 -0.5967,-0.26958 -1.76591,-0.90377 -2.06443,-1.0951 -4.1349,-2.19773 -6.29975,-3.0825 -1.74606,-0.86818 -3.34176,-1.99018 -5.06256,-2.90572 -1.71912,-1.01963 -3.39737,-2.1105 -4.74423,-3.61159 -1.62113,-1.73594 -3.40833,-3.28597 -5.17639,-4.86822 -1.6039,-1.5736 -3.28583,-3.08928 -5.09811,-4.41872 -1.79494,-1.09167 -3.66949,-2.11683 -5.65422,-2.81446 -6.84254,-2.04545 -7.09769,1.03988 8.16043,-9.39593 1.75986,0.0435 3.52192,-0.0926 5.26921,-0.29194 2.2969,-0.32516 4.5581,-0.83047 6.83304,-1.27929 2.23579,-0.56353 4.44765,-1.27164 6.55753,-2.20533 0.98806,-0.41207 1.9915,-0.8091 2.95839,-1.26957 0.30852,-0.14692 1.20588,-0.64269 0.91135,-0.46942 -13.54852,7.9711 -15.09653,8.95511 -10.60426,6.13812 1.98011,-1.14269 2.65559,-1.99601 3.26878,-4.23149 0.69166,-1.88087 1.41124,-3.73852 1.57439,-5.75991 0.30374,-1.71807 0.39005,-3.40605 -0.11488,-5.10863 -0.48578,-1.32488 -1.36,-2.50579 -2.68517,-3.08367 -1.74997,-0.45896 -3.5231,-0.41065 -5.32289,-0.37895 -2.17939,0.004 -4.3603,0.0119 -6.5365,0.14415 -2.54858,0.1841 -5.07489,0.52967 -7.5683,1.10031 -2.51426,0.38436 -5.05054,0.7253 -7.59728,0.7472 0,0 11.79778,-8.57158 11.79778,-8.57158 z"
       inkscape:connector-curvature="0"
       transform="translate(0,308.2677)" />
    <path
       style="fill:#000080;fill-opacity:1;stroke:#000000;stroke-width:2.5999999;stroke-miterlimit:4;stroke-opacity:1;stroke-dasharray:none;stroke-dashoffset:0"
       id="path4329"
       d="m 566.07383,665.87446 c 1.70765,-2.18796 3.8362,-3.9828 5.96347,-5.7451 2.14792,-1.83128 4.43189,-3.48668 6.80566,-5.01016 6.0359,-3.57839 11.64899,-8.51227 18.72028,-9.41218 1.98376,-0.18285 3.97881,-0.15644 5.9687,-0.14883 2.06492,-0.10881 4.04511,0.0777 6.00073,0.75494 1.94804,0.6269 3.72321,1.85744 5.23522,3.22362 1.44299,1.28778 2.70192,2.71442 3.81915,4.29168 0.95569,1.4645 1.68266,2.93024 2.03556,4.64924 0.32502,2.12754 0.34844,4.28503 0.37277,6.4325 0.0439,2.49746 -0.96307,4.46205 -2.60711,6.26261 -4.63925,4.11 -11.20421,6.99603 -16.17037,9.70172 -0.62476,0.34039 -1.36171,0.41665 -2.02638,0.67042 -2.14768,0.80429 -4.34452,1.44326 -6.53805,2.12193 -2.35637,0.92359 -4.80771,1.65372 -7.28033,2.20606 -2.20378,0.63225 -4.56529,0.29032 -6.76213,0.84765 -3.90924,0.77001 -18.60177,9.52453 8.96195,-5.59612 0.25952,-0.14237 -0.46871,0.36981 -0.65419,0.60049 -0.19592,0.24368 -0.31848,0.53818 -0.47772,0.80727 -0.65904,1.65432 -0.96421,3.45678 -0.38856,5.17115 0.095,0.22203 0.18994,0.44407 0.28491,0.66611 0,0 -12.70105,7.13804 -12.70105,7.13804 l 0,0 c -0.10888,-0.24991 -0.21776,-0.49983 -0.32665,-0.74974 -0.75616,-2.02615 -0.6275,-4.10395 -0.0672,-6.17772 2.19111,-6.68244 10.45786,-9.25992 16.98723,-10.59551 2.22465,-0.18649 4.46463,-0.30601 6.63295,-0.88886 2.44852,-0.65501 4.86017,-1.43952 7.24486,-2.29679 2.1835,-0.69951 4.37679,-1.3579 6.51417,-2.19404 4.88899,-1.7523 9.64916,-5.34183 -9.50717,5.89797 -2.08952,1.22601 5.03996,-2.70931 2.88495,-1.79242 1.65233,-1.47002 2.97193,-2.87228 3.06734,-5.20094 -0.007,-2.06374 -3.6e-4,-4.13641 -0.26674,-6.18669 -0.27377,-1.52744 -0.91552,-2.79758 -1.754,-4.09762 -1.05035,-1.48138 -2.22159,-2.83056 -3.60964,-4.01036 -1.44452,-1.19189 -3.05385,-2.2364 -4.8864,-2.70313 -1.90467,-0.43669 -3.82146,-0.4684 -5.77064,-0.41406 -1.94225,0.009 -3.89775,0.006 -5.81692,0.34493 -1.00091,0.22173 -1.9499,0.4754 -2.88827,0.90014 -0.33623,0.15218 -1.30851,0.68208 -0.99037,0.49501 17.21508,-10.12305 14.54411,-8.51753 10.25259,-5.92376 -2.45248,1.37111 -4.74294,3.02151 -6.89852,4.82163 -2.08669,1.68137 -4.26073,3.33403 -5.96268,5.41331 0,0 -13.40145,5.72561 -13.40145,5.72561 z"
       inkscape:connector-curvature="0"
       transform="translate(0,308.2677)" />
    <path
       style="fill:#000080;fill-opacity:1;stroke:#000000;stroke-width:2.5999999;stroke-miterlimit:4;stroke-opacity:1;stroke-dasharray:none;stroke-dashoffset:0"
       id="path4331"
       d="m 581.48028,713.25436 c -1.58381,0.26213 -3.31606,0.46337 -4.76486,1.21477 -0.3295,0.1709 -1.2494,0.80067 -0.92617,0.6182 3.93433,-2.22098 7.84129,-4.4901 11.76193,-6.73514 -1.17956,0.60746 0.44547,1.23117 1.06983,1.4966 1.77565,0.50159 3.43188,1.32534 5.19672,1.86584 0.48436,-0.0701 1.73536,0.7861 2.19199,0.28485 0.0823,-0.0903 0.0694,-0.42695 -0.0357,-0.36469 -12.7818,7.5728 -9.84042,11.89498 -12.78348,7.09671 -0.99683,-1.64591 -0.95264,-3.44282 -0.42372,-5.22383 0.10942,-0.23006 0.21884,-0.46011 0.32826,-0.69017 0,0 13.28749,-5.98955 13.28749,-5.98955 l 0,0 c -0.11828,0.21001 -0.23656,0.42002 -0.35483,0.63004 -0.83825,1.17986 -1.02156,2.66458 -0.24407,3.93213 3.06832,4.66905 0.80354,0.78233 -11.31559,9.38294 -0.10783,0.0765 -0.19809,-0.18293 -0.31971,-0.23482 -0.73843,-0.31505 -1.61311,-0.32787 -2.34426,-0.66896 -1.80648,-0.64111 -3.60422,-1.3218 -5.37991,-2.04078 -1.45069,-0.89885 -2.9227,-2.17635 -2.3853,-4.05758 8.40534,-4.99905 11.10621,-8.10337 19.09442,-9.28063 0,0 -11.65305,8.76407 -11.65305,8.76407 z"
       inkscape:connector-curvature="0"
       transform="translate(0,308.2677)" />
    <path
       sodipodi:type="arc"
       style="fill:#45484a;fill-opacity:1;stroke:#000000;stroke-width:2.59999989999999981;stroke-miterlimit:4;stroke-opacity:1;stroke-dasharray:none;stroke-dashoffset:0;opacity:0.34274194000000002"
       id="path4352"
       sodipodi:cx="660.65381"
       sodipodi:cy="355.3591"
       sodipodi:rx="253.26698"
       sodipodi:ry="225.78065"
       d="m 913.92079,355.3591 a 253.26698,225.78065 0 1 1 -506.53396,0 253.26698,225.78065 0 1 1 506.53396,0 z"
       transform="matrix(1.0438417,0,0,1.1415681,-251.75607,239.85912)" />
  </g>
</svg>
